<?xml version="1.0" encoding="UTF-8"?>
<svg version="1.1" viewBox="0 0 2048 2048" width="1280" height="1280" xmlns="http://www.w3.org/2000/svg">
<path transform="translate(1082,748)" d="m0 0h13l16 3 13 2 17 6 16 8 11 8 12 12 7 10 8 17 5 18 3 17v21l-4 29-6 22-7 20-9 21-8 16-15 26-14 20-8 10-13 14-7 8-10 9-11 9-6 5-11 8-19 12-17 9-26 11-21 8-3 1 1 4 17 8 23 8 12 4 19 4 17 3 14 1h57l24-2 24-4 18-4 26-8 20-8 25-12 20-11 20-14 13-10 12-11 8-7 9-9 7-8 14-17 13-17 11-15 11-17 14-24 8-15 13-29 8-22 2-4h2l1 3 4 35v23l-4 29-5 21-8 24-7 16-12 22-6 8-4 7-8 10-7 9-7 7-5 6h-2l-2 4-15 14-12 10-10 8-20 14-20 12-23 12-23 10-36 12-23 6-22 5-25 4-29 2h-32l-30-2-29-5-22-5-27-8-22-9-21-10-20-12-10-8-5-1-7 16-9 16-9 12-14 14-12 7-21 6h-7l-21-6-17-8-18-12-11-8-9-7-5-5-16-15-12-13v-2h-2l-6-8-5-5-13-15-8-10v-2h-2l-7-8-9-11-8-8-13-9-12-6-11-4-6-1h-9l-11 4-9 6-9 9-9 16-9 23-10 33-13 52-10 39-12 44-12 43-12 41-7 23-1 4h-2l-8-19-15-40-10-26-13-35-13-36-14-43-12-40-13-47-13-53-9-42-6-35-3-23-4-47v-25l6-53 5-30 2-8 3 1 12 36 11 35 9 29 10 37 12 48 12 55 10 42 8 31 10 35 10 32 4 11v2h4l4-16 7-25 12-44 8-25 6-16 10-19 10-14 9-10 15-11 17-8 19-5 6-1h20l21 4 15 6 17 8 19 13 14 12 15 15 18 22 12 15 9 11 9 9 7 8 15 15 8 7 8 8 11 9 10 7 11 5 7-1 12-6 11-9 5-5h2v-2l11-7 5-3-1-4-8-13-7-15-6-19-4-24-1-14v-77l2-16 4-24 6-25 9-27 10-22 11-19 11-16 12-14 12-13 14-12 13-10 15-10 21-11 21-8 17-4 12-2zm-1 64-22 5-16 6-19 10-15 11-21 21-10 14-11 19-8 17-5 14-6 22-4 24-1 21v65l1 16 5 18 5 10 10 11h7l16-13 17-16 21-21 7-8 8-8 7-9 11-12 9-11 3-4v-2h2l10-13 11-15 10-16 9-16 8-16 5-11 11-33 4-19v-28l-5-12-11-12-8-5-16-4z" fill="#4BB6EB"/>
<path transform="translate(377,808)" d="m0 0 3 1 12 36 11 35 9 29 10 37 12 48 12 55 10 42 8 31 10 35 10 32 4 11v2h4l4-16 7-25 12-44 8-25 6-16 10-19 10-14 9-10 15-11 17-8 19-5 6-1h20l21 4 15 6 17 8 19 13 14 12 15 15 18 22 12 15 9 11 9 9 7 8 15 15 8 7 8 8 11 9 10 7 11 5 7-1 12-6 11-9 5-5h2v-2l11-7 5-3 4 2 3 3v2h2l6 7-3 10-11 21-11 15-14 14-12 7-21 6h-7l-21-6-17-8-18-12-11-8-9-7-5-5-16-15-12-13v-2h-2l-6-8-5-5-13-15-8-10v-2h-2l-7-8-9-11-8-8-13-9-12-6-11-4-6-1h-9l-11 4-9 6-9 9-9 16-9 23-10 33-13 52-10 39-12 44-12 43-12 41-7 23-1 4h-2l-8-19-15-40-10-26-13-35-13-36-14-43-12-40-13-47-13-53-9-42-6-35-3-23-4-47v-25l6-53 5-30z" fill="#F58F27"/>
<path transform="translate(1576,549)" d="m0 0h6l7 6 4 7 1 3v10l-8 24-17 47-4 13 1 5 10 5 10 4 5 3 5-1 4-5 3-2h8l6 4 3 5v11l14 7 23 11 8 6 14 22 4 5v4l-5 1-13-4-29-13-15-7-42-19-22-9h-6l-7 15-8 20-10 26-5 12-5 13v8l11 12 8 12v5l-5 4-4-1-10-9-8-7-10-5-7-2h-13l-19 4h-6l-1-6 3-6 9-7 11-4 12-3 5-4 6-17 17-57 3-11v-3l-59-5-52-4-17-1-7-3-2-2 1-4 14-8 16-6 21-3 12 2h20l6-10 4-2h10l2 1 5 14 2 1 30 1 3-9 13-32 11-28 10-21 8-9z" fill="#F58F27"/>
</svg>
